<?xml version="1.0" standalone="no"?>
<!DOCTYPE svg PUBLIC "-//W3C//DTD SVG 20010904//EN"
 "http://www.w3.org/TR/2001/REC-SVG-20010904/DTD/svg10.dtd">
<svg version="1.0" xmlns="http://www.w3.org/2000/svg"
 width="1297.000000pt" height="1297.000000pt" viewBox="0 0 1297.000000 1297.000000"
 preserveAspectRatio="xMidYMid meet">
<metadata>
Created by potrace 1.11, written by Peter Selinger 2001-2013
</metadata>
<g transform="translate(0.000000,1297.000000) scale(0.100000,-0.100000)"
fill="#000000" stroke="none">
<path d="M6357 12964 c-1 -1 -74 -5 -162 -8 -88 -4 -178 -8 -200 -11 -22 -2
-69 -6 -105 -10 -128 -11 -250 -24 -280 -30 -14 -3 -45 -7 -70 -10 -48 -6 -48
-6 -190 -30 -79 -13 -261 -51 -345 -71 -11 -3 -31 -7 -45 -10 -14 -3 -34 -8
-45 -11 -11 -4 -24 -8 -30 -9 -5 -1 -30 -7 -55 -14 -25 -7 -53 -14 -63 -16
-70 -13 -388 -118 -582 -191 -342 -129 -663 -283 -1010 -486 -103 -61 -502
-324 -525 -347 -3 -3 -32 -25 -65 -49 -268 -198 -646 -543 -902 -822 -230
-252 -516 -631 -708 -939 -67 -107 -105 -170 -105 -173 0 -3 -25 -49 -56 -103
-143 -251 -309 -616 -422 -925 -65 -177 -171 -522 -197 -637 -2 -9 -18 -80
-35 -157 -28 -122 -56 -271 -74 -385 -3 -19 -8 -46 -10 -60 -4 -22 -19 -133
-31 -230 -5 -37 -15 -146 -21 -214 -29 -350 -24 -900 11 -1186 2 -19 7 -63 10
-98 4 -35 8 -73 10 -84 3 -11 7 -46 10 -77 4 -31 9 -64 11 -74 3 -10 7 -32 10
-50 2 -18 6 -43 9 -57 2 -14 7 -41 10 -60 46 -286 158 -706 270 -1015 20 -55
41 -116 47 -135 5 -19 14 -39 18 -45 4 -5 11 -21 15 -35 27 -92 224 -515 329
-707 179 -327 452 -736 661 -988 256 -311 497 -560 764 -795 41 -36 79 -70 85
-75 6 -6 29 -24 50 -40 22 -17 51 -41 65 -54 43 -39 318 -243 436 -323 120
-81 353 -228 361 -228 2 0 23 -12 47 -27 80 -51 433 -232 587 -301 227 -101
619 -246 810 -299 196 -54 374 -98 495 -123 130 -27 157 -32 240 -46 17 -3 37
-7 45 -9 8 -2 38 -6 65 -10 28 -3 61 -7 75 -10 23 -4 70 -10 155 -20 17 -2 59
-6 95 -10 36 -4 81 -8 100 -10 287 -30 954 -25 1220 10 19 2 64 7 100 10 36 4
124 15 195 26 124 18 148 22 205 34 14 2 39 7 55 10 56 9 220 44 305 65 47 11
95 23 108 26 51 10 337 96 434 129 57 20 108 37 113 39 37 11 357 137 425 168
288 130 436 206 715 368 103 59 282 175 380 245 28 19 61 43 75 52 25 17 211
156 240 180 246 198 346 288 575 517 219 219 281 288 436 476 210 257 458 613
592 853 15 26 39 68 54 95 35 60 160 300 173 330 5 13 28 62 51 110 22 48 61
137 86 197 25 61 51 124 58 140 45 106 195 551 210 619 2 12 20 82 39 156 19
74 42 167 50 205 8 39 18 84 21 100 8 40 53 298 60 349 4 23 8 52 10 66 2 14
6 50 10 80 3 30 8 71 10 90 17 146 20 178 31 375 13 230 7 692 -11 845 -2 19
-7 69 -10 110 -7 80 -11 121 -19 179 -3 20 -10 72 -16 117 -6 44 -12 90 -14
101 -6 30 -17 94 -21 125 -2 14 -11 62 -20 105 -9 43 -19 92 -21 108 -3 17
-11 53 -19 80 -8 28 -17 66 -20 85 -3 19 -10 49 -16 66 -5 17 -12 41 -14 53
-71 320 -265 840 -465 1241 -53 107 -106 211 -117 230 -11 19 -35 62 -53 95
-100 179 -276 449 -425 650 -91 123 -286 366 -330 411 -5 6 -41 46 -80 89
-145 163 -455 464 -609 590 -27 22 -54 45 -60 50 -56 53 -333 261 -486 366
-298 204 -711 434 -1000 559 -41 18 -95 41 -120 52 -217 98 -626 236 -930 314
-104 26 -388 87 -460 98 -14 3 -45 8 -70 11 -25 4 -54 9 -65 11 -22 5 -55 10
-130 19 -27 4 -63 8 -80 11 -59 8 -101 13 -185 19 -47 4 -101 9 -120 11 -86 8
-607 24 -613 18z"/>
</g>
</svg>
