<?xml version="1.0" standalone="no"?>
<!DOCTYPE svg PUBLIC "-//W3C//DTD SVG 20010904//EN"
 "http://www.w3.org/TR/2001/REC-SVG-20010904/DTD/svg10.dtd">
<svg version="1.0" xmlns="http://www.w3.org/2000/svg"
 width="1399.000000pt" height="1399.000000pt" viewBox="0 0 1399.000000 1399.000000"
 preserveAspectRatio="xMidYMid meet">
<metadata>
Created by potrace 1.11, written by Peter Selinger 2001-2013
</metadata>
<g transform="translate(0.000000,1399.000000) scale(0.100000,-0.100000)"
fill="#000000" stroke="none">
<path d="M6788 13565 c-2 -1 -68 -5 -148 -9 -80 -4 -163 -9 -185 -11 -22 -2
-67 -6 -100 -10 -55 -5 -103 -10 -180 -20 -16 -2 -52 -7 -80 -10 -64 -8 -398
-65 -405 -70 -3 -2 -23 -6 -45 -9 -22 -4 -58 -11 -80 -17 -22 -6 -49 -13 -60
-15 -29 -5 -296 -75 -380 -99 -5 -1 -14 -4 -20 -5 -5 -2 -41 -14 -80 -27 -38
-13 -77 -26 -85 -28 -37 -8 -313 -111 -365 -135 -11 -5 -60 -26 -110 -46 -245
-100 -576 -270 -850 -437 -71 -43 -144 -90 -162 -103 -17 -13 -34 -24 -37 -24
-24 0 -535 -385 -628 -472 -7 -7 -31 -28 -53 -47 -221 -188 -533 -508 -746
-766 -209 -253 -485 -653 -634 -920 -279 -501 -471 -967 -615 -1492 -39 -146
-45 -167 -56 -223 -3 -13 -14 -62 -25 -109 -11 -47 -22 -101 -25 -120 -3 -20
-10 -55 -15 -78 -5 -23 -11 -63 -14 -89 -4 -26 -8 -50 -10 -53 -2 -3 -6 -30
-10 -60 -4 -30 -8 -62 -10 -71 -2 -9 -6 -41 -10 -71 -3 -30 -8 -70 -10 -89 -3
-19 -7 -66 -11 -105 -3 -38 -8 -83 -9 -100 -25 -241 -25 -832 -1 -1080 2 -16
7 -66 10 -110 4 -44 9 -87 11 -95 2 -8 6 -42 10 -75 6 -58 29 -218 40 -280 26
-141 58 -299 70 -345 1 -5 18 -78 20 -90 7 -35 18 -81 26 -105 5 -16 23 -79
40 -140 54 -194 157 -497 200 -592 10 -24 19 -45 19 -48 0 -4 9 -25 19 -49 11
-23 29 -67 41 -96 34 -86 169 -364 242 -499 38 -69 68 -126 68 -127 0 -9 209
-344 278 -444 82 -121 250 -349 309 -419 15 -19 54 -67 86 -105 159 -192 469
-512 659 -679 592 -524 1237 -919 1953 -1200 139 -54 398 -144 485 -168 25 -7
50 -14 55 -15 119 -37 471 -122 575 -139 19 -3 42 -8 50 -10 8 -2 29 -6 45 -9
17 -3 71 -12 120 -20 84 -14 109 -18 210 -30 22 -3 58 -8 80 -11 39 -5 118
-12 220 -20 374 -28 841 -24 1148 10 26 3 71 7 100 10 56 6 117 14 157 20 14
2 45 7 70 10 59 8 99 14 130 20 14 3 41 7 60 10 19 4 53 10 75 15 22 5 54 11
70 14 38 7 113 23 145 30 14 4 45 11 70 16 25 5 66 16 93 24 26 8 47 12 47 10
0 -2 12 1 28 7 15 6 35 13 45 15 42 10 58 14 157 44 119 35 165 51 370 125
532 193 1109 503 1580 849 103 75 329 252 345 270 6 6 23 22 39 34 92 71 448
415 576 557 136 150 289 335 404 490 37 50 74 98 82 108 70 87 330 504 431
692 44 81 213 422 213 430 0 2 15 36 34 77 53 116 199 503 221 588 2 8 18 60
35 115 80 258 175 683 205 915 3 25 10 74 15 110 6 36 12 90 15 120 3 30 7 82
10 115 3 33 7 77 10 98 23 213 23 802 0 1027 -3 25 -7 74 -10 110 -3 36 -7 74
-9 85 -2 12 -7 52 -10 90 -4 39 -9 77 -11 85 -2 8 -7 35 -10 60 -6 46 -34 218
-41 255 -2 11 -6 31 -9 45 -6 33 -34 169 -40 198 -3 12 -23 91 -45 175 -22 83
-42 161 -45 171 -34 144 -193 583 -293 811 -61 140 -217 454 -276 555 -14 25
-29 52 -33 60 -33 73 -282 456 -396 610 -72 98 -241 313 -267 340 -8 9 -35 40
-60 70 -168 203 -512 541 -740 730 -41 34 -84 69 -95 78 -11 10 -49 40 -85 67
-36 28 -67 53 -70 56 -3 3 -63 47 -135 98 -71 50 -139 98 -150 107 -43 33
-357 225 -490 300 -174 97 -478 244 -650 314 -71 29 -143 58 -160 65 -68 29
-347 125 -363 125 -10 0 -22 4 -28 9 -7 7 -228 72 -290 86 -11 2 -46 11 -78
20 -33 9 -76 18 -95 21 -20 3 -39 8 -42 10 -3 2 -21 6 -40 9 -19 3 -42 8 -51
11 -19 6 -29 8 -148 30 -47 9 -92 17 -100 19 -8 2 -51 8 -95 14 -44 7 -96 14
-115 17 -44 6 -80 11 -150 19 -30 3 -71 8 -90 10 -42 5 -154 14 -265 21 -79 5
-582 13 -587 9z"/>
</g>
</svg>
