<svg id="Слой_1" data-name="Слой 1" xmlns="http://www.w3.org/2000/svg" viewBox="0 0 484.07 460.8"><defs><style>.cls-1{fill:#5c6779;}.cls-2,.cls-5,.cls-8{fill:none;}.cls-2,.cls-5{stroke:#000;stroke-miterlimit:10;}.cls-2{stroke-width:3px;}.cls-3{fill:#8cc55a;}.cls-4{fill:#92ce5d;}.cls-6{fill:#191c25;}.cls-7{fill:#a9da7f;}.cls-9{fill:#85bc56;}</style></defs><title>hrom</title><polyline class="cls-1" points="423.29 306.93 433.67 306.93 433.67 287.79 424.49 287.6"/><line class="cls-2" x1="421.99" y1="408.9" x2="429.92" y2="25.96"/><rect class="cls-3" x="57.41" y="0.2" width="121.96" height="36.33" rx="14.23"/><polygon class="cls-1" points="116.9 391.37 113.2 394.75 59.14 299.42 63.89 293.89 116.9 391.37"/><path class="cls-1" d="M436.8,38.15h14.76a0,0,0,0,1,0,0V53.71a0,0,0,0,1,0,0H436.8a6,6,0,0,1-6-6V44.15A6,6,0,0,1,436.8,38.15Z" transform="translate(868.36 65.59) rotate(-180)"/><path class="cls-4" d="M474.91,487.07l-324.27-1.3A61.07,61.07,0,0,1,89.57,424.7V47.11a20.64,20.64,0,0,1,20.64-20.64H417A25.52,25.52,0,0,1,442.48,52L436.6,436.41c2,24.71,15,37.68,38.31,50.66Z" transform="translate(-14 -26.27)"/><path class="cls-3" d="M474.91,487.07l-324.27-1.3A61.07,61.07,0,0,1,89.57,424.7L89.23,29.87c4.83-4.83,40.83-3.4,52.23-3.4L172.6,130.26c47.28,109.08,92.16,170.05,210.19,184.24,19.8,2.39,55.69-9,55.69-5.47L436.6,436.41c2,24.71,15,37.68,38.31,50.66Z" transform="translate(-14 -26.27)"/><path class="cls-5" d="M441.18,455.93" transform="translate(-14 -26.27)"/><rect class="cls-1" x="55.9" y="22.94" width="4.19" height="275.54"/><rect class="cls-6" x="49.62" y="286.94" width="15.57" height="5.19"/><rect class="cls-6" x="55.9" y="298.35" width="4.19" height="116.77"/><path class="cls-1" d="M497.56,448.75l-4.21,1.5a.55.55,0,0,1-.69-.3l-51.3-121.07a.45.45,0,0,1,0-.23l.44-12.08a.55.55,0,0,1,1.06-.19L497.89,448A.55.55,0,0,1,497.56,448.75Z" transform="translate(-14 -26.27)"/><polygon class="cls-1" points="5.32 426.3 0.2 423.41 50.57 294.05 55.47 302.03 5.32 426.3"/><path class="cls-1" d="M54.15,11.87h9a0,0,0,0,1,0,0V27.44a0,0,0,0,1,0,0h-9a6,6,0,0,1-6-6V17.87a6,6,0,0,1,6-6Z"/><polyline class="cls-1" points="48.65 291.22 65.56 291.22 67.79 305.73 47.03 305.73"/><rect class="cls-7" x="83.36" y="10.58" width="332.15" height="12.97" rx="4.7"/><path class="cls-8" d="M43.62,371.21" transform="translate(-14 -26.27)"/><path class="cls-6" d="M18.23,452.67l-3.44-1.27a1.23,1.23,0,0,1-.72-1.57l.8-2.1,5.71,2.12-.8,2.12A1.21,1.21,0,0,1,18.23,452.67Z" transform="translate(-14 -26.27)"/><path class="cls-6" d="M492.33,446.91h5.6a0,0,0,0,1,0,0v2.43a1,1,0,0,1-1,1h-3.6a1,1,0,0,1-1-1v-2.43A0,0,0,0,1,492.33,446.91Z" transform="translate(-151.53 207.53) rotate(-23.42)"/><path class="cls-9" d="M90.44,432.3V363.42c0,6,180.06,64.05,345.63,2.41v84.6c-172.82-29-340.82,0-340.82,0" transform="translate(-14 -26.27)"/><polygon points="426.33 287.65 433.59 287.88 433.59 290.01 425.69 290.01 426.33 287.65"/><rect class="cls-6" x="37.92" y="372.48" width="9.72" height="24.82" rx="1.99" transform="translate(132.46 -14.5) rotate(21.87)"/><rect class="cls-6" x="465.72" y="377.31" width="9.72" height="24.82" rx="1.99" transform="translate(-126.19 179.87) rotate(-22.15)"/></svg>