<svg id="Слой_1" data-name="Слой 1" xmlns="http://www.w3.org/2000/svg" viewBox="0 0 512 512"><defs><style>.cls-1{stroke:#000;stroke-miterlimit:10;}</style></defs><title>MP1</title><path d="M256,10a246.06,246.06,0,0,1,95.75,472.67A246.06,246.06,0,0,1,160.25,29.33,244.37,244.37,0,0,1,256,10m0-10C114.62,0,0,114.62,0,256S114.62,512,256,512,512,397.38,512,256,397.38,0,256,0Z"/><path class="cls-1" d="M284.6,133.36V385.25H227.34l-.08-170L204.47,385.25H163.86l-24-166.16-.08,166.16H82.5V133.36h84.75Q171,156.08,175,186.91l9.3,64.07,15.06-117.62Z"/><path class="cls-1" d="M310.89,133.36h66q26.76,0,41.16,4.2t21.62,12.14a41.66,41.66,0,0,1,9.8,19.21Q452,180.19,452,203.84v21.94q0,24.1-5,35.16t-18.28,17q-13.31,5.91-34.77,5.91H376.39V385.25h-65.5Zm65.5,43.1v64.1c1.86.1,3.47.15,4.82.15q9,0,12.53-4.43t3.5-18.44V197.15q0-12.92-4.05-16.8T376.39,176.46Z"/></svg>