<svg id="Слой_1" data-name="Слой 1" xmlns="http://www.w3.org/2000/svg" viewBox="0 0 455 474.09"><defs><style>.cls-1{fill:#fff;}.cls-1,.cls-3,.cls-4{stroke:#000;}.cls-1,.cls-2,.cls-3,.cls-4,.cls-5,.cls-6,.cls-7{stroke-miterlimit:10;}.cls-2{fill:none;stroke:#000102;stroke-width:5px;}.cls-3,.cls-5{fill:#040c01;}.cls-5,.cls-6{stroke:#fff;}.cls-7{stroke:#f2f4f2;}.cls-8{font-size:111.57px;font-family:Impact;}</style></defs><title>coop</title><circle class="cls-1" cx="227.5" cy="246.59" r="225"/><g id="MAN_2" data-name="MAN 2"><g id="фон"><g id="фон_2" data-name="фон 2"><circle class="cls-2" cx="227.5" cy="246.59" r="225"/></g></g><path class="cls-3" d="M147.45,352,142,351A9.49,9.49,0,0,0,131,358.45l-12,63.43a9.42,9.42,0,0,0,7.57,10.95l5.43,1A9.49,9.49,0,0,0,143,426.34l12-63.43A9.42,9.42,0,0,0,147.45,352Z" transform="translate(-28.5 -9.41)"/><path class="cls-3" d="M194.07,303.1l-4.22-3.54a9.58,9.58,0,0,0-13.35,1.09l-42.17,49.24a9.33,9.33,0,0,0,1.1,13.21l4.22,3.54A9.58,9.58,0,0,0,153,365.55l42.17-49.24A9.33,9.33,0,0,0,194.07,303.1Z" transform="translate(-28.5 -9.41)"/><path class="cls-3" d="M192.78,289.72,189.36,291a9.39,9.39,0,0,0-5.52,12.09l47.21,123.78a9.52,9.52,0,0,0,12.21,5.46l3.42-1.27A9.38,9.38,0,0,0,252.2,419L205,295.18A9.54,9.54,0,0,0,192.78,289.72Z" transform="translate(-28.5 -9.41)"/><path class="cls-3" d="M206.48,320.46l-36.74,6.85A8,8,0,0,1,160.4,321l-12.59-66.07a7.93,7.93,0,0,1,6.38-9.25l36.74-6.85a8,8,0,0,1,9.34,6.31l12.59,66.08A7.92,7.92,0,0,1,206.48,320.46Z" transform="translate(-28.5 -9.41)"/><path class="cls-3" d="M218.21,281.27l-22.57-28.76a6.73,6.73,0,0,1,1.21-9.48h0a6.89,6.89,0,0,1,9.58,1.19L229,273a6.72,6.72,0,0,1-1.2,9.48h0A6.9,6.9,0,0,1,218.21,281.27Z" transform="translate(-28.5 -9.41)"/><path class="cls-4" d="M250.13,238.84l-19.1,42c-1.81,4-6.07,6-9.45,4.44h0c-3.37-1.56-4.65-6.11-2.83-10.12l19.09-42c1.82-4,6.07-6,9.45-4.44h0C250.67,230.29,252,234.84,250.13,238.84Z" transform="translate(-28.5 -9.41)"/><path class="cls-3" d="M154.29,263.48,69,241a7.21,7.21,0,0,1-5.15-8.81l.43-1.6a7.3,7.3,0,0,1,8.9-5.09L158.47,248a7.21,7.21,0,0,1,5.15,8.81l-.43,1.6A7.32,7.32,0,0,1,154.29,263.48Z" transform="translate(-28.5 -9.41)"/><ellipse class="cls-3" cx="136.25" cy="203.45" rx="23.21" ry="22.97"/><ellipse class="cls-3" cx="158.75" cy="209.12" rx="7.56" ry="10.04"/><ellipse class="cls-1" cx="159.4" cy="209.28" rx="4.85" ry="5.83"/><ellipse class="cls-3" cx="27.63" cy="209.12" rx="14.1" ry="8.87"/><ellipse class="cls-1" cx="27.63" cy="209.12" rx="7.35" ry="4.15"/><ellipse class="cls-4" cx="223.09" cy="230.13" rx="13.81" ry="9.3" transform="translate(-125.86 214.31) rotate(-44.74)"/><ellipse class="cls-1" cx="223.09" cy="230.13" rx="8.81" ry="3.78" transform="translate(-125.86 214.31) rotate(-44.74)"/><path class="cls-4" d="M233.73,223.21s20,12.46,24,14.32c0,0,4.83-3.26,7.13-.63,0,0,5,4.41-7.27,7.21L234,229.88" transform="translate(-28.5 -9.41)"/><polygon class="cls-5" points="145.19 215.37 110.5 203.89 116.5 186.15 151.18 197.63 145.19 215.37"/><path class="cls-3" d="M68.6,222.68l1.63-1.54,9,27.51s6.61.76,5.18,3.71c0,0,.25,6.65-9.85,0,0,0-10-28.23-7.49-28.24" transform="translate(-28.5 -9.41)"/><path class="cls-3" d="M70.23,219.69" transform="translate(-28.5 -9.41)"/><path class="cls-6" d="M143.83,195.71l-6.34,16.43S132.77,201.24,143.83,195.71Z" transform="translate(-28.5 -9.41)"/></g><g id="man"><line class="cls-4" x1="411.32" y1="204.12" x2="401.18" y2="230.28"/><path class="cls-4" d="M436.38,207.1s-4.9,31.69-13.69,31.69c0,0,1,9.12,8.79,0l8.34-24.72" transform="translate(-28.5 -9.41)"/><rect class="cls-4" x="313.19" y="226.97" width="56.96" height="85.06" transform="translate(29.42 -69.84) rotate(11.04)"/><rect class="cls-4" x="347.82" y="365.01" width="86.2" height="27.52" rx="12.17" transform="translate(63.64 824.35) rotate(-100.8)"/><rect class="cls-7" x="261.39" y="242.39" width="72.68" height="16.19" rx="5.24"/><rect class="cls-4" x="243.62" y="338.81" width="115.4" height="27.52" rx="12.17" transform="translate(-166.73 491.14) rotate(-68.09)"/><rect class="cls-4" x="312.91" y="304.68" width="86.2" height="25.76" rx="12.17" transform="translate(376.87 782.65) rotate(-137.67)"/><rect class="cls-4" x="357.92" y="223.73" width="82.79" height="15.24" rx="6.08" transform="translate(-68.44 80.41) rotate(-12.23)"/><rect class="cls-4" x="312" y="306.02" width="93.16" height="25.76" rx="12.17" transform="translate(380.44 786.72) rotate(-137.67)"/><rect class="cls-4" x="277.51" y="239.36" width="55.13" height="12.41" rx="5.24" transform="translate(-106.14 319.21) rotate(-51.08)"/><ellipse class="cls-6" cx="343.78" cy="234.79" rx="16.27" ry="10.65"/><circle class="cls-4" cx="330.85" cy="186.11" r="24.34"/><circle class="cls-6" cx="306.51" cy="191.94" r="8.62"/><rect class="cls-6" x="345.62" y="181.75" width="41.58" height="18.76" rx="2.44" transform="translate(-67.63 102.18) rotate(-16.45)"/><circle class="cls-1" cx="306.51" cy="191.94" r="4.94"/><ellipse class="cls-4" cx="423.34" cy="197.69" rx="15.46" ry="10.22"/><ellipse class="cls-4" cx="423.34" cy="197.69" rx="15.46" ry="10.22"/><ellipse class="cls-1" cx="423.34" cy="197.69" rx="8.87" ry="3.93"/><ellipse class="cls-1" cx="343.78" cy="234.79" rx="7.9" ry="4.82"/><path class="cls-6" d="M356,247.92s-5.45,28.22-13.05,28.39c0,0-.34,7.44,11.49,1.86l8.83-25.1" transform="translate(-28.5 -9.41)"/><line class="cls-7" x1="142.64" y1="175.34" x2="145.43" y2="176.8"/><path class="cls-6" d="M334.8,177.84l-.16,2.8s-15.49-6.94-23.84,22.44c0,0-13.29,45.24-27.4-3,0,0-6.24-77.67-21.87-86.79l3.24-2.8s13.63-1.45,23.68,84.39c0,0,7.33,46.28,19.89,1.14C308.34,196,315.72,170.9,334.8,177.84Z" transform="translate(-28.5 -9.41)"/><path class="cls-6" d="M183.21,189.62l1.39,2s7.55-11.66,26.82,6.72c0,0,30,28.11,17.59-13.72,0,0-31.33-60.44-24.69-73.77l-3.54-.73s-10.1,4.63,22.35,72.74c0,0,16.17,37.52-13.26,9.18C209.87,192.06,193.24,176.47,183.21,189.62Z" transform="translate(-28.5 -9.41)"/></g><g id="СЛОВА"><text x="-28.5" y="-9.41"/><text x="-28.5" y="-9.41"/><text class="cls-8" transform="translate(142.98 133.78) scale(0.69 1)">COOP</text></g></svg>