<svg id="Слой_1" data-name="Слой 1" xmlns="http://www.w3.org/2000/svg" viewBox="0 0 512 512"><defs><style>.cls-1{stroke:#000;stroke-miterlimit:10;}</style></defs><title>MR1</title><path d="M256,7a246.06,246.06,0,0,1,95.75,472.67A246.06,246.06,0,0,1,160.25,26.33,244.37,244.37,0,0,1,256,7m0-10C114.62-3,0,111.62,0,253S114.62,509,256,509,512,394.38,512,253,397.38-3,256-3Z" transform="translate(0 3)"/><path class="cls-1" d="M270.31,131.76V374H215.24l-.07-163.54L193.25,374H154.2L131.08,214.2,131,374H75.94V131.76h81.51q3.63,21.84,7.48,51.5l8.94,61.61,14.48-113.11Z" transform="translate(0 3)"/><path class="cls-1" d="M295.59,131.76h44.59q44.58,0,60.37,3.44t25.74,17.58q9.94,14.15,9.95,45.11,0,28.29-7,38t-27.68,11.67q18.69,4.63,25.13,12.42t8,14.29q1.57,6.5,1.57,35.83V374h-58.5V293.5q0-19.44-3.07-24.09t-16.09-4.64V374h-63Zm63,41.45v53.86q10.64,0,14.89-2.92t4.27-18.93V191.91q0-11.52-4.12-15.11T358.58,173.21Z" transform="translate(0 3)"/></svg>