<svg xmlns="http://www.w3.org/2000/svg" xmlns:xlink="http://www.w3.org/1999/xlink" viewBox="0 0 456 456.99"><defs><style>.cls-1,.cls-2,.cls-3{fill:none;}.cls-1,.cls-2,.cls-3,.cls-4,.cls-5,.cls-6{stroke:#000;}.cls-1,.cls-2,.cls-3,.cls-4,.cls-5,.cls-6,.cls-7,.cls-8{stroke-miterlimit:10;}.cls-1{stroke-width:2px;}.cls-2{stroke-width:6px;}.cls-3{stroke-width:4px;}.cls-4,.cls-7{fill:#040c01;}.cls-6{fill:#fff;}.cls-7,.cls-8{stroke:#fff;}</style></defs><title>MR</title><g id="Слой_3" data-name="Слой 3"><circle class="cls-1" cx="228" cy="228.99" r="225"/><image width="386" height="385" transform="translate(68.82) rotate(0.47)" xlink:href="67676.jpg"/><circle class="cls-2" cx="228" cy="228.99" r="225"/><polyline class="cls-3" points="71.46 67.38 382.18 388.17 385.07 390.09"/></g><g id="Слой_2" data-name="Слой 2"><path class="cls-4" d="M286.92,304.61l5.33-1.46a9.5,9.5,0,0,1,11.64,6.54l17.24,62.22a9.41,9.41,0,0,1-6.63,11.54l-5.33,1.45a9.49,9.49,0,0,1-11.64-6.54l-17.25-62.22A9.41,9.41,0,0,1,286.92,304.61Z" transform="translate(-28 -27.01)"/><path class="cls-4" d="M236.39,259.79l3.91-3.88a9.58,9.58,0,0,1,13.4,0l46.12,45.56a9.33,9.33,0,0,1,0,13.26l-3.91,3.87a9.58,9.58,0,0,1-13.4,0l-46.12-45.56A9.34,9.34,0,0,1,236.39,259.79Z" transform="translate(-28 -27.01)"/><path class="cls-4" d="M236.57,246.35l3.51,1a9.36,9.36,0,0,1,6.5,11.58L209.84,386.2a9.54,9.54,0,0,1-11.72,6.46l-3.51-1a9.36,9.36,0,0,1-6.5-11.58L224.85,252.8A9.54,9.54,0,0,1,236.57,246.35Z" transform="translate(-28 -27.01)"/><path class="cls-4" d="M225.47,278.12l37.18,3.78a8,8,0,0,0,8.78-7.07l7.05-66.9a7.92,7.92,0,0,0-7.12-8.68l-37.18-3.77a8,8,0,0,0-8.79,7.07l-7,66.89A7.91,7.91,0,0,0,225.47,278.12Z" transform="translate(-28 -27.01)"/><path class="cls-4" d="M210.52,240l20.1-30.53a6.75,6.75,0,0,0-2-9.36h0a6.91,6.91,0,0,0-9.46,2l-20.09,30.54a6.72,6.72,0,0,0,2,9.35h0A6.89,6.89,0,0,0,210.52,240Z" transform="translate(-28 -27.01)"/><path class="cls-5" d="M175.18,200.42l22.53,40.31c2.15,3.84,6.55,5.48,9.79,3.64h0c3.23-1.83,4.13-6.48,2-10.32L187,193.74c-2.15-3.84-6.55-5.48-9.79-3.64h0C173.93,191.94,173,196.58,175.18,200.42Z" transform="translate(-28 -27.01)"/><path class="cls-4" d="M272.74,217l83.14-29.52a7.21,7.21,0,0,0,4.4-9.21l-.56-1.55a7.3,7.3,0,0,0-9.3-4.34l-83.13,29.52a7.2,7.2,0,0,0-4.4,9.2l.56,1.56A7.29,7.29,0,0,0,272.74,217Z" transform="translate(-28 -27.01)"/><ellipse class="cls-4" cx="258.1" cy="167.42" rx="23.21" ry="22.97" transform="translate(-41.03 -4.96) rotate(-4.77)"/><ellipse class="cls-4" cx="236.16" cy="174.94" rx="7.56" ry="10.04" transform="translate(-41.73 -6.76) rotate(-4.77)"/><ellipse class="cls-6" cx="235.52" cy="175.16" rx="4.85" ry="5.83" transform="translate(-41.75 -6.81) rotate(-4.77)"/><ellipse class="cls-4" cx="366.82" cy="164.04" rx="14.1" ry="8.87" transform="translate(-40.37 4.07) rotate(-4.77)"/><ellipse class="cls-6" cx="366.82" cy="164.04" rx="7.35" ry="4.15" transform="translate(-40.37 4.07) rotate(-4.77)"/><ellipse class="cls-5" cx="201.41" cy="189.49" rx="9.3" ry="13.81" transform="translate(-101.19 195.1) rotate(-50.03)"/><ellipse class="cls-6" cx="201.41" cy="189.49" rx="3.78" ry="8.81" transform="translate(-101.19 195.1) rotate(-50.03)"/><path class="cls-5" d="M190.23,183.47s-18.84,14.08-22.69,16.26c0,0-5.09-2.84-7.16,0,0,0-4.61,4.82,7.85,6.59l22.33-16.15" transform="translate(-28 -27.01)"/><polygon class="cls-7" points="222.19 153.03 255.8 138.71 248.35 121.53 214.74 135.85 222.19 153.03"/><path class="cls-4" d="M354.74,169.21l-1.75-1.4L346.31,196s-6.53,1.31-4.85,4.13c0,0,.29,6.65,9.8-.82,0,0,7.57-29,5.12-28.76" transform="translate(-28 -27.01)"/><path class="cls-4" d="M352.87,166.36" transform="translate(-28 -27.01)"/><path class="cls-8" d="M277.52,148.6l7.7,15.84S289,153.19,277.52,148.6Z" transform="translate(-28 -27.01)"/><path class="cls-8" d="M237.78,145.8l-1.22,2.13s-8.49-11-26.17,8.93c0,0-27.53,30.5-18.67-12.21,0,0,26.2-62.84,18.47-75.57l3.46-1s10.45,3.77-16.21,74.35c0,0-13,38.73,14,8C211.41,150.45,226.69,133.53,237.78,145.8Z" transform="translate(-28 -27.01)"/></g></svg>